<?xml version="1.0" standalone="no"?>
<!DOCTYPE svg PUBLIC "-//W3C//DTD SVG 20010904//EN"
 "http://www.w3.org/TR/2001/REC-SVG-20010904/DTD/svg10.dtd">
<svg version="1.0" xmlns="http://www.w3.org/2000/svg"
 width="828.000000pt" height="152.000000pt" viewBox="0 0 828.000000 152.000000"
 preserveAspectRatio="xMidYMid meet">

<g transform="translate(0.000000,152.000000) scale(0.100000,-0.100000)"
fill="#000000" stroke="none">
<path d="M776 1498 c-25 -39 -28 -71 -9 -108 31 -60 109 -72 157 -24 38 39 40
92 4 134 -14 16 -30 20 -78 20 -51 0 -62 -3 -74 -22z"/>
<path d="M1894 1259 c-34 -5 -88 -17 -120 -27 l-59 -18 -3 -386 -2 -385 27
-12 c101 -41 328 -54 454 -25 81 18 154 64 184 114 14 26 20 52 19 97 -1 84
-38 146 -111 184 l-52 27 28 12 c36 15 77 57 90 93 19 50 13 139 -12 188 -27
52 -96 102 -170 124 -66 20 -195 26 -273 14z m189 -271 c9 -11 17 -28 17 -39
0 -29 -42 -68 -82 -75 l-38 -6 0 70 c0 59 3 71 18 75 29 8 66 -3 85 -25z m-1
-258 c35 -43 13 -103 -42 -115 -66 -15 -80 9 -63 109 l6 38 41 -5 c25 -4 48
-14 58 -27z"/>
<path d="M3385 1260 c-59 -10 -105 -22 -157 -42 l-28 -10 0 -384 0 -383 73
-23 c63 -20 92 -23 237 -23 148 1 171 3 223 24 131 52 181 140 147 262 -13 46
-65 104 -114 128 l-40 19 32 16 c126 65 133 250 12 348 -20 15 -61 37 -91 48
-66 23 -210 33 -294 20z m179 -261 c58 -46 11 -129 -75 -129 -17 0 -19 7 -19
65 0 50 4 66 18 74 26 16 47 13 76 -10z m0 -260 c19 -15 26 -30 26 -53 0 -42
-29 -68 -77 -70 l-38 -1 -3 73 -3 72 34 0 c20 0 46 -9 61 -21z"/>
<path d="M5131 1249 c-63 -12 -129 -47 -172 -90 -47 -47 -67 -84 -79 -151 -30
-159 73 -278 241 -278 89 0 127 -32 87 -72 -19 -19 -29 -20 -102 -16 -54 4
-103 14 -144 31 -34 13 -62 22 -62 18 -1 -3 -7 -55 -14 -114 l-12 -108 35 -15
c131 -55 212 -69 306 -54 188 29 282 139 274 319 -4 88 -26 130 -87 172 -30
20 -51 24 -144 29 -80 4 -112 10 -118 20 -13 21 -12 25 8 43 27 25 108 31 191
13 41 -9 77 -13 80 -10 3 3 11 55 16 116 l10 111 -32 13 c-68 29 -199 39 -282
23z"/>
<path d="M6946 983 c-3 -153 -9 -344 -12 -425 l-6 -148 29 5 c15 2 127 12 248
21 121 9 221 17 222 18 3 2 23 196 23 226 l0 30 -114 0 c-63 0 -117 3 -119 8
-2 4 2 81 10 172 7 91 17 211 21 268 l8 102 -152 0 -152 0 -6 -277z"/>
<path d="M7733 1246 c-123 -39 -222 -161 -254 -315 -17 -84 -7 -244 20 -314
31 -78 94 -153 161 -191 47 -26 66 -31 145 -34 73 -3 101 0 150 17 32 12 65
27 72 34 12 11 47 256 38 265 -1 1 -33 -13 -71 -32 -88 -45 -138 -53 -183 -29
-34 18 -79 68 -70 78 5 5 228 38 335 50 l62 7 6 51 c4 29 2 86 -4 127 -20 142
-94 249 -198 284 -55 19 -151 20 -209 2z m156 -262 c12 -15 21 -39 21 -55 0
-31 -2 -31 -122 -44 l-57 -6 8 29 c28 96 104 134 150 76z"/>
<path d="M2732 1243 c-95 -3 -103 -5 -112 -26 -11 -23 -230 -757 -230 -767 0
-7 218 -30 272 -30 24 0 27 5 40 63 l13 62 71 3 71 3 12 -53 c19 -87 10 -84
167 -64 76 9 140 18 142 20 1 2 -48 181 -111 397 l-114 394 -59 1 c-32 0 -105
-1 -162 -3z m79 -405 c25 -113 26 -108 -27 -108 -38 0 -45 3 -40 18 3 9 13 54
22 99 10 46 19 81 22 79 2 -3 12 -42 23 -88z"/>
<path d="M5507 1158 c-4 -46 -7 -109 -7 -142 l0 -59 89 7 88 7 7 -158 c3 -87
9 -211 12 -276 l7 -117 62 0 c34 0 89 3 122 6 l61 7 6 151 c3 83 9 206 12 273
l6 122 89 7 89 7 1 81 0 81 103 -205 104 -205 -6 -168 -5 -167 153 0 153 0 -6
168 -6 169 140 228 c77 125 138 229 137 230 -2 2 -66 5 -142 7 l-139 3 -48
-119 c-27 -65 -50 -121 -52 -123 -2 -2 -23 50 -47 114 -24 65 -47 122 -51 127
-7 8 -126 -2 -251 -21 -36 -5 -38 -4 -38 21 l0 26 -319 0 -318 0 -6 -82z"/>
<path d="M3970 1203 c-57 -7 -106 -16 -109 -19 -3 -3 43 -103 103 -222 l108
-217 -4 -168 -3 -167 150 0 150 0 -3 169 -4 170 130 213 c72 117 133 220 137
229 5 14 -8 17 -92 22 -54 4 -117 7 -140 7 l-41 0 -48 -120 c-26 -66 -50 -120
-54 -120 -3 0 -26 54 -50 120 l-43 120 -41 -1 c-23 -1 -88 -8 -146 -16z"/>
<path d="M772 1193 c-17 -3 -22 -9 -17 -21 18 -46 55 -187 55 -208 0 -19 5
-24 24 -24 13 0 31 -3 40 -6 12 -5 16 0 16 19 0 28 27 187 36 210 4 11 -3 17
-23 21 -53 10 -108 14 -131 9z"/>
<path d="M1328 1189 c-15 -6 -36 -25 -48 -43 -21 -34 -27 -91 -11 -100 18 -12
111 113 111 149 0 7 -21 5 -52 -6z"/>
<path d="M1400 1148 c-12 -24 -44 -66 -72 -94 l-50 -51 30 -22 c56 -39 145
-19 178 41 27 48 12 118 -34 156 -24 18 -28 16 -52 -30z"/>
<path d="M657 1168 c-21 -7 -26 -14 -21 -27 4 -9 21 -58 38 -108 l31 -93 39 0
39 0 -7 54 c-3 29 -15 83 -26 120 -22 71 -31 77 -93 54z"/>
<path d="M940 1123 c-6 -27 -14 -79 -17 -117 l-6 -69 74 6 c89 6 169 25 169
40 0 5 -15 30 -32 54 -25 32 -38 42 -54 38 -16 -3 -20 0 -20 17 1 15 -12 29
-44 49 -25 15 -48 28 -51 28 -4 1 -12 -20 -19 -46z"/>
<path d="M185 1119 c28 -55 94 -139 110 -139 19 0 20 49 1 95 -16 38 -47 62
-95 71 l-33 7 17 -34z"/>
<path d="M527 1079 l-62 -62 50 -22 c28 -13 74 -30 104 -39 l53 -16 -7 37 c-9
51 -55 163 -66 163 -6 0 -38 -28 -72 -61z"/>
<path d="M71 1104 c-41 -53 -40 -120 4 -173 49 -57 127 -63 185 -14 l30 25
-50 39 c-27 21 -66 63 -87 93 -21 31 -43 55 -50 56 -6 0 -21 -12 -32 -26z"/>
<path d="M436 950 c-9 -22 -16 -44 -16 -48 0 -15 127 -53 218 -66 l43 -6 -3
40 -3 41 -95 33 c-52 18 -102 36 -111 40 -13 5 -20 -2 -33 -34z"/>
<path d="M1110 934 c-25 -8 -78 -17 -117 -21 l-73 -6 0 -38 c0 -36 2 -38 38
-45 68 -11 150 -34 197 -54 26 -11 49 -20 51 -20 10 0 3 101 -11 148 -17 56
-18 57 -85 36z"/>
<path d="M710 870 l0 -40 40 0 40 0 0 40 0 40 -40 0 -40 0 0 -40z"/>
<path d="M812 873 c3 -36 5 -38 41 -41 l37 -3 0 40 0 41 -41 0 -40 0 3 -37z"/>
<path d="M407 828 c-5 -39 4 -133 14 -142 2 -2 36 4 74 14 39 11 90 19 115 20
60 1 72 10 68 51 -3 33 -5 34 -56 41 -30 5 -87 19 -128 33 -41 14 -76 25 -78
25 -2 0 -6 -19 -9 -42z"/>
<path d="M710 760 c0 -39 1 -40 35 -40 34 0 35 1 35 40 0 39 -1 40 -35 40 -34
0 -35 -1 -35 -40z"/>
<path d="M810 760 l0 -40 40 0 40 0 0 40 0 40 -40 0 -40 0 0 -40z"/>
<path d="M920 762 l0 -40 73 -22 c39 -12 96 -33 126 -47 59 -28 65 -26 77 36
5 23 2 36 -7 42 -25 16 -166 58 -218 65 l-51 7 0 -41z"/>
<path d="M104 690 c-110 -56 -109 -212 2 -262 54 -24 70 -19 79 21 7 34 85
146 107 154 11 4 10 9 -2 32 -35 66 -117 90 -186 55z"/>
<path d="M1353 695 c-21 -15 -21 -16 50 -85 65 -64 73 -69 84 -53 7 9 13 34
13 56 0 75 -87 124 -147 82z"/>
<path d="M605 695 c-5 -1 -42 -8 -80 -14 -100 -17 -102 -18 -71 -80 27 -51 41
-60 76 -41 18 9 18 8 8 -20 -12 -36 1 -56 59 -90 l34 -20 10 28 c14 35 38 167
39 210 0 30 -2 32 -32 31 -18 0 -37 -2 -43 -4z"/>
<path d="M702 611 c-7 -49 -19 -108 -27 -132 -9 -24 -13 -48 -11 -55 9 -24
206 -48 206 -26 0 5 -13 45 -30 89 -16 45 -35 111 -41 147 l-12 66 -37 0 -36
0 -12 -89z"/>
<path d="M819 695 c-10 -9 10 -114 37 -194 34 -103 33 -102 74 -91 64 18 67
24 42 68 -12 22 -35 79 -51 128 -28 87 -29 89 -63 92 -18 2 -36 0 -39 -3z"/>
<path d="M936 638 c21 -70 75 -188 86 -188 12 0 114 104 128 130 9 17 4 23
-47 49 -51 25 -152 61 -174 61 -4 0 -1 -24 7 -52z"/>
<path d="M1305 627 c-9 -34 19 -91 51 -106 26 -12 64 -15 64 -5 0 11 -58 89
-83 113 l-26 24 -6 -26z"/>
<path d="M272 540 c-62 -82 -71 -144 -16 -97 37 31 57 74 52 113 l-3 29 -33
-45z"/>
<path d="M730 280 c-42 -42 -13 -110 46 -110 24 0 64 43 64 67 0 21 -46 63
-70 63 -11 0 -29 -9 -40 -20z"/>
</g>
</svg>
